<?xml version="1.0" encoding="UTF-8" standalone="no"?>
<!DOCTYPE svg PUBLIC "-//W3C//DTD SVG 1.1//EN" "http://www.w3.org/Graphics/SVG/1.1/DTD/svg11.dtd">
<svg width="100%" height="100%" viewBox="0 0 426 441" version="1.1" xmlns="http://www.w3.org/2000/svg" xmlns:xlink="http://www.w3.org/1999/xlink" xml:space="preserve" xmlns:serif="http://www.serif.com/" style="fill-rule:evenodd;clip-rule:evenodd;stroke-linejoin:round;stroke-miterlimit:2;">
    <g id="Artboard1" transform="matrix(0.313375,0,0,1,0,0)">
        <rect x="0" y="0" width="1358.82" height="440.95" style="fill:none;"/>
        <g transform="matrix(3.191067,0,0,1,0,0)">
            <path d="M126.48,287.82L101.39,277.22C100.48,276.84 99.43,277.24 99.01,278.13C95.71,285.1 88.57,300.15 85.24,307.3C84.75,308.34 85.23,309.59 86.28,310.04L110.89,319.8C111.9,320.24 113.07,319.8 113.55,318.79C118.03,309.31 122.89,299.89 127.45,290.22C127.89,289.29 127.45,288.18 126.49,287.81L126.48,287.82Z" style="fill:white;fill-rule:nonzero;"/>
            <path d="M141.86,339.88L109.77,327.75C108.56,327.3 108,327.65 107.43,328.81C102.23,339.45 96.97,350.05 91.72,360.67C91.33,361.45 91.64,362.42 92.44,362.75C92.46,362.75 92.48,362.77 92.5,362.77C102.52,366.61 111.96,371.01 121.99,374.84C125.15,376.05 125.45,375.37 126.93,372.34C132,361.97 137.64,352.18 142.75,341.83C143.35,340.62 143.12,340.3 141.87,339.87L141.86,339.88Z" style="fill:white;fill-rule:nonzero;"/>
            <path d="M94.06,273.55C97.22,274.76 97.52,274.08 99,271.05C104.07,260.68 107.93,250.89 113.04,240.54C113.64,239.33 113.41,239.01 112.16,238.58L84.8,228.23C83.59,227.78 83.03,228.13 82.46,229.29C77.26,239.93 73.77,250.53 68.52,261.15C68.13,261.93 68.44,262.9 69.24,263.23C69.26,263.23 69.28,263.25 69.3,263.25" style="fill:white;fill-rule:nonzero;"/>
            <path d="M25.14,340.41C27.19,341.19 27.38,339.99 28.34,338.03C31.62,331.32 33.74,327.28 37.04,320.58C37.43,319.8 37.28,319.59 36.47,319.31L18.77,312.23C17.99,311.94 17.62,312.16 17.25,312.92C13.89,319.81 11.63,324.75 8.23,331.62C7.98,332.12 8.18,332.75 8.7,332.97C8.71,332.97 8.73,332.98 8.74,332.99" style="fill:white;fill-rule:nonzero;"/>
            <path d="M62.97,312.32C65.58,313.32 65.82,312.27 67.05,309.77C71.24,301.21 74.43,294.59 78.64,286.05C79.13,285.05 78.94,284.79 77.91,284.43L56.3,275.39C55.3,275.02 54.83,275.3 54.37,276.26C50.08,285.05 46.71,293.31 42.37,302.08C42.05,302.72 42.3,303.52 42.97,303.8C42.99,303.8 43,303.81 43.02,303.82" style="fill:white;fill-rule:nonzero;"/>
            <path d="M64.15,357.06C66.76,358.06 67,357.01 68.23,354.51C72.42,345.95 75.61,339.33 79.82,330.79C80.31,329.79 80.12,329.53 79.09,329.17L57.48,320.13C56.48,319.76 56.01,320.04 55.55,321C51.26,329.79 47.89,338.05 43.55,346.82C43.23,347.46 43.48,348.26 44.15,348.54C44.17,348.54 44.18,348.55 44.2,348.56" style="fill:white;fill-rule:nonzero;"/>
            <g transform="matrix(0.217292,-0.976107,0.976107,0.217292,-15.29,356.43)">
                <ellipse cx="214.62" cy="187.75" rx="16.59" ry="13.67" style="fill:white;"/>
            </g>
            <g transform="matrix(0.217292,-0.976107,0.976107,0.217292,26.37,477.15)">
                <ellipse cx="310.73" cy="222.13" rx="16.59" ry="13.67" style="fill:white;"/>
            </g>
            <path d="M415.74,159.44C414.72,154.94 412.59,150.85 409.8,146.96L340.13,48.76C334.26,40.49 325.3,34.93 315.28,33.36L177.39,11.66C173.75,11.08 170.02,9.96 166.45,10.29C157.81,11.07 151.2,14.03 148.5,23.44C147.93,25.44 147.72,27.58 147.62,29.66C147.28,36.8 147.19,43.96 146.77,51.09C146.43,56.96 145.83,62.82 145.22,68.68C144.56,75.03 143.86,81.38 142.96,87.71C142.14,93.5 141.02,99.26 140.05,105.03C139.21,110.01 138.51,115.01 137.53,119.96C136.47,125.33 135.18,130.65 133.97,135.99C132.89,140.76 131.88,145.54 130.65,150.27C129.29,155.47 127.72,160.62 126.2,165.78C124.66,171 123.15,176.24 121.46,181.42C119.37,187.82 117.22,194.21 114.89,200.53C111.88,208.66 108.63,216.69 105.57,224.81C105.37,225.35 105.77,226.66 106.19,226.83C113.34,229.58 120.53,232.19 127.72,234.84C128.87,235.26 130.01,235.7 131.16,236.11C132.96,236.76 133.49,237.93 132.76,239.64C128.07,250.49 123.39,261.34 118.66,272.17C117.92,273.85 118.52,274.78 120.04,275.4C129.39,279.24 134.23,280.95 143.61,284.7C145.52,285.46 145.76,286.15 144.84,288.03C139.15,299.71 137.09,303.86 131.47,315.57C130.64,317.3 130.86,317.55 132.29,318.75L163.26,330.64C165.3,330.95 165.55,331.04 164.42,333.12L148.47,364.02C147.56,365.76 148.09,367.12 149.91,367.88L260.13,423.91C267.28,427.88 274.81,430.7 283.2,430.28C283.27,430.28 283.34,430.28 283.41,430.27C292.67,429.75 301.29,425.41 307.43,418.46C365.92,352.37 405.97,230.67 414.65,187.46C415.77,181.31 416.39,172.92 416.39,165.86C416.42,163.62 416.19,161.48 415.72,159.43L415.74,159.44ZM244.31,200.51C238.44,226.86 216.09,244.3 194.37,239.46C172.66,234.63 159.81,209.35 165.68,183C171.55,156.65 193.9,139.21 215.62,144.05C237.33,148.88 250.18,174.16 244.31,200.51ZM340.42,234.9C334.55,261.25 312.2,278.69 290.48,273.85C268.77,269.02 255.92,243.74 261.79,217.39C267.66,191.04 290.01,173.6 311.73,178.44C333.44,183.27 346.29,208.55 340.42,234.9ZM397.59,172.08C397.24,173.58 395.69,174.45 394.23,173.97C392.53,173.41 390.93,172.89 389.35,172.3C375.65,167.21 361.9,162.26 348.31,156.9C343.73,155.1 336.99,152.83 333.16,149.8C321.73,140.76 317.05,125.76 316.25,111.88C315.51,99.19 316.57,86.38 316.92,73.63C317.04,69.26 317.38,64.9 317.64,60.53C317.78,58.14 320.61,57.82 322.75,58.76C329.77,61.84 332.46,67.89 333.12,74.83C333.64,80.32 333.45,85.94 332.96,91.45C332.11,101.09 332.23,110.59 334.74,120.01C337.06,128.73 341.78,135.66 350.24,139.1C362.91,144.25 375.79,148.9 388.61,153.69C392.26,155.06 395.77,156.45 396.8,160.78C397.16,162.32 397.35,164.38 397.5,165.94C397.67,167.65 398.11,169.86 397.6,172.07L397.59,172.08Z" style="fill:white;fill-rule:nonzero;"/>
        </g>
    </g>
</svg>
