<?xml version="1.0" encoding="UTF-8" standalone="no"?>
<!DOCTYPE svg PUBLIC "-//W3C//DTD SVG 1.1//EN" "http://www.w3.org/Graphics/SVG/1.1/DTD/svg11.dtd">
<svg width="100%" height="100%" viewBox="0 0 269 224" version="1.1" xmlns="http://www.w3.org/2000/svg" xmlns:xlink="http://www.w3.org/1999/xlink" xml:space="preserve" xmlns:serif="http://www.serif.com/" style="fill-rule:evenodd;clip-rule:evenodd;stroke-linejoin:round;stroke-miterlimit:2;">
    <g id="Artboard1" transform="matrix(0.236172,0,0,1,0,0)">
        <rect x="0" y="0" width="1139" height="224" style="fill:none;"/>
        <g transform="matrix(4.234201,0,0,1,0,0)">
            <path d="M31.829,224C66.155,224 91.951,194.147 107.345,170.557C105.473,175.776 104.433,180.995 104.433,186.006C104.433,199.784 112.338,209.596 127.941,209.596C149.368,209.596 172.252,190.807 184.11,170.557C183.278,173.48 182.862,176.194 182.862,178.699C182.862,188.302 188.271,194.356 199.296,194.356C234.038,194.356 268.988,132.772 268.988,78.912C268.988,36.951 247.768,0 194.512,0C100.896,0 0,114.401 0,188.302C0,217.32 15.602,224 31.829,224ZM162.266,74.319C162.266,63.881 168.091,56.574 176.621,56.574C184.942,56.574 190.767,63.881 190.767,74.319C190.767,84.757 184.942,92.272 176.621,92.272C168.091,92.272 162.266,84.757 162.266,74.319ZM206.786,74.319C206.786,63.881 212.611,56.574 221.14,56.574C229.461,56.574 235.286,63.881 235.286,74.319C235.286,84.757 229.461,92.272 221.14,92.272C212.611,92.272 206.786,84.757 206.786,74.319Z" style="fill:rgb(171,159,242);fill-rule:nonzero;"/>
        </g>
    </g>
</svg>
