<?xml version="1.0" encoding="UTF-8" standalone="no"?>
<!DOCTYPE svg PUBLIC "-//W3C//DTD SVG 1.1//EN" "http://www.w3.org/Graphics/SVG/1.1/DTD/svg11.dtd">
<svg width="100%" height="100%" viewBox="0 0 65 61" version="1.1" xmlns="http://www.w3.org/2000/svg" xmlns:xlink="http://www.w3.org/1999/xlink" xml:space="preserve" xmlns:serif="http://www.serif.com/" style="fill-rule:evenodd;clip-rule:evenodd;stroke-linejoin:round;stroke-miterlimit:2;">
    <g id="Artboard1" transform="matrix(0.174731,0,0,1,0,0)">
        <rect x="0" y="0" width="372" height="61" style="fill:none;"/>
        <g transform="matrix(5.723077,0,0,1,0,0)">
            <clipPath id="_clip1">
                <rect x="0" y="1.627" width="64.849" height="58.103"/>
            </clipPath>
            <g clip-path="url(#_clip1)">
                <path d="M64.515,47.437L53.81,58.939C53.577,59.188 53.296,59.388 52.983,59.524C52.67,59.66 52.332,59.73 51.991,59.73L1.243,59.73C1.001,59.73 0.764,59.659 0.561,59.526C0.359,59.393 0.2,59.204 0.103,58.981C0.006,58.759 -0.023,58.513 0.018,58.274C0.059,58.035 0.169,57.813 0.334,57.635L11.047,46.134C11.28,45.885 11.56,45.686 11.872,45.55C12.184,45.414 12.521,45.343 12.861,45.342L63.606,45.342C63.849,45.343 64.085,45.413 64.288,45.546C64.49,45.679 64.65,45.869 64.746,46.091C64.843,46.314 64.872,46.56 64.831,46.799C64.79,47.038 64.68,47.26 64.515,47.437ZM53.81,24.276C53.577,24.026 53.296,23.827 52.983,23.691C52.67,23.555 52.332,23.484 51.991,23.485L1.243,23.485C1.001,23.485 0.764,23.555 0.561,23.689C0.359,23.822 0.2,24.011 0.103,24.233C0.006,24.456 -0.023,24.702 0.018,24.941C0.059,25.18 0.169,25.402 0.334,25.579L11.047,37.081C11.28,37.33 11.56,37.529 11.872,37.665C12.184,37.801 12.521,37.871 12.861,37.872L63.606,37.872C63.849,37.872 64.085,37.801 64.288,37.668C64.49,37.535 64.65,37.346 64.746,37.123C64.843,36.901 64.872,36.655 64.831,36.416C64.79,36.177 64.68,35.955 64.515,35.778L53.81,24.276ZM1.243,16.014L51.991,16.014C52.332,16.014 52.67,15.944 52.983,15.808C53.296,15.672 53.577,15.473 53.81,15.223L64.515,3.721C64.68,3.544 64.79,3.322 64.831,3.083C64.872,2.844 64.843,2.598 64.746,2.376C64.65,2.153 64.49,1.964 64.288,1.831C64.085,1.698 63.849,1.627 63.606,1.627L12.861,1.627C12.521,1.627 12.184,1.698 11.872,1.834C11.56,1.97 11.28,2.169 11.047,2.418L0.337,13.92C0.172,14.097 0.062,14.319 0.021,14.557C-0.02,14.796 0.009,15.042 0.105,15.264C0.201,15.486 0.36,15.676 0.562,15.809C0.764,15.942 1.001,16.014 1.243,16.014Z" style="fill:url(#_Linear2);fill-rule:nonzero;"/>
            </g>
        </g>
    </g>
    <defs>
        <linearGradient id="_Linear2" x1="0" y1="0" x2="1" y2="0" gradientUnits="userSpaceOnUse" gradientTransform="matrix(53.32506,-60.00519,60.00519,53.32506,5.47404,61.1147)"><stop offset="0" style="stop-color:rgb(153,69,255);stop-opacity:1"/><stop offset="0.08" style="stop-color:rgb(153,69,255);stop-opacity:1"/><stop offset="0.3" style="stop-color:rgb(135,82,243);stop-opacity:1"/><stop offset="0.5" style="stop-color:rgb(84,151,213);stop-opacity:1"/><stop offset="0.6" style="stop-color:rgb(67,180,202);stop-opacity:1"/><stop offset="0.72" style="stop-color:rgb(40,224,185);stop-opacity:1"/><stop offset="0.97" style="stop-color:rgb(25,251,155);stop-opacity:1"/><stop offset="1" style="stop-color:rgb(25,251,155);stop-opacity:1"/></linearGradient>
    </defs>
</svg>
