<svg width="81" height="81" viewBox="0 0 81 81" fill="none" xmlns="http://www.w3.org/2000/svg">
<circle cx="40.6709" cy="40.667" r="40" fill="white"/>
<path d="M62.6709 55.3639C60.379 59.3517 56.1379 61.8041 51.5421 61.8041H44.1098V36.7416L33.3821 55.3694C31.0897 59.3573 26.8491 61.8097 22.2533 61.8097H14.8717V24.8233H29.7197V49.8229L44.1098 24.8349V24.8233H58.9517V49.9261L74.5451 22.8349C75.1752 21.7347 75.1636 20.3714 74.4817 19.3C67.2899 7.94331 54.539 0.454223 40.0524 0.671602C17.9608 1.01588 0.556704 18.7957 0.671463 40.8845C0.786221 62.8756 18.6544 80.667 40.6715 80.667C62.688 80.667 80.6709 62.7608 80.6709 40.6721C80.6709 37.114 80.2008 33.6646 79.3241 30.3758C79.0604 29.3788 77.7313 29.1951 77.2154 30.0834L62.6654 55.3578L62.6709 55.3639Z" fill="#7168BE"/>
</svg>
