<?xml version="1.0" encoding="UTF-8" standalone="no"?>
<!DOCTYPE svg PUBLIC "-//W3C//DTD SVG 1.1//EN" "http://www.w3.org/Graphics/SVG/1.1/DTD/svg11.dtd">
<svg width="100%" height="100%" viewBox="0 0 512 512" version="1.1" xmlns="http://www.w3.org/2000/svg" xmlns:xlink="http://www.w3.org/1999/xlink" xml:space="preserve" xmlns:serif="http://www.serif.com/" style="fill-rule:evenodd;clip-rule:evenodd;stroke-linejoin:round;stroke-miterlimit:2;">
    <g transform="matrix(1,0,0,1,-2600,-401)">
        <g id="Artboard2" transform="matrix(0.899634,0,0,0.881239,260.160859,47.623064)">
            <rect x="2600.88" y="401" width="569.12" height="581" style="fill:none;"/>
            <clipPath id="_clip1">
                <rect x="2600.88" y="401" width="569.12" height="581"/>
            </clipPath>
            <g clip-path="url(#_clip1)">
                <g transform="matrix(1.111563,0,0,1.134766,494.185022,-154.423467)">
                    <path d="M2407.254,617.461L2407.254,873.461C2407.254,944.106 2349.899,1001.461 2279.254,1001.461L2023.254,1001.461C1952.608,1001.461 1895.254,944.106 1895.254,873.461L1895.254,617.461C1895.254,546.816 1952.608,489.461 2023.254,489.461L2279.254,489.461C2349.899,489.461 2407.254,546.816 2407.254,617.461Z"/>
                </g>
                <g transform="matrix(0.902006,0,0,0.920834,818.877806,601.711583)">
                    <g transform="matrix(246.464868,0,0,246.464868,2100.064535,171.867466)">
                        <path d="M0.114,0.151L0.114,-0.755L0.347,-0.755L0.347,-0.67L0.216,-0.67L0.216,0.067L0.347,0.067L0.347,0.151L0.114,0.151Z" style="fill:white;fill-rule:nonzero;"/>
                    </g>
                    <g transform="matrix(246.464868,0,0,246.464868,2193.18928,171.867466)">
                    </g>
                    <g transform="matrix(246.464868,0,0,246.464868,2258.446208,171.867466)">
                    </g>
                    <g transform="matrix(246.464868,0,0,246.464868,2323.703135,171.867466)">
                    </g>
                    <g transform="matrix(246.464868,0,0,246.464868,2388.960062,171.867466)">
                        <path d="M0.264,-0.755L0.264,0.151L0.03,0.151L0.03,0.067L0.162,0.067L0.162,-0.67L0.03,-0.67L0.03,-0.755L0.264,-0.755Z" style="fill:white;fill-rule:nonzero;"/>
                    </g>
                    <g transform="matrix(246.464868,0,0,246.464868,2482.084807,171.867466)">
                    </g>
                </g>
            </g>
        </g>
    </g>
</svg>
