<?xml version="1.0" encoding="UTF-8" standalone="no"?>
<!DOCTYPE svg PUBLIC "-//W3C//DTD SVG 1.1//EN" "http://www.w3.org/Graphics/SVG/1.1/DTD/svg11.dtd">
<svg width="100%" height="100%" viewBox="0 0 709 709" version="1.1" xmlns="http://www.w3.org/2000/svg" xmlns:xlink="http://www.w3.org/1999/xlink" xml:space="preserve" xmlns:serif="http://www.serif.com/" style="fill-rule:evenodd;clip-rule:evenodd;stroke-miterlimit:10;">
    <g transform="matrix(1,0,0,1,-1045,0)">
        <g id="BACKGROUND">
        </g>
        <g id="favicon" transform="matrix(0.972985,0,0,0.982432,711.266026,-553.109108)">
            <rect x="343" y="563" width="728" height="721" style="fill:none;"/>
            <g id="OBJECTS" transform="matrix(4.282353,0,0,4.241176,-9.523294,-10.067765)">
                <g transform="matrix(0.24,0,0,0.24,82.32,135.12)">
                    <path d="M708.333,177.083L708.333,531.25C708.333,628.985 628.985,708.333 531.25,708.333L177.083,708.333C79.348,708.333 0,628.985 0,531.25L0,177.083C0,79.348 79.348,0 177.083,0L531.25,0C628.985,0 708.333,79.348 708.333,177.083Z" style="fill:white;"/>
                </g>
                <g transform="matrix(1,0,0,1,117.16035,269.212917)">
                    <path d="M0,-98.185C-7.947,-88.679 -2.909,-73.797 -4.448,-63.511C-5.965,-53.225 -12.163,-49.093 -12.163,-49.093C-12.163,-49.093 -5.965,-44.961 -4.448,-34.675C-2.909,-24.389 -7.947,-9.507 0,-0.001C2.569,3.096 5.72,4.64 8.628,5.359C11.292,6.02 13.132,8.444 13.132,11.189C13.132,14.742 10.067,17.6 6.536,17.197C-13.479,14.92 -19.54,1.444 -18.507,-15.726C-17.638,-29.938 -19.875,-37.344 -23.911,-40.159C-26.641,-42.063 -28.499,-44.967 -28.499,-48.294L-28.499,-49.892C-28.499,-53.219 -26.641,-56.123 -23.911,-58.027C-19.875,-60.842 -17.638,-68.248 -18.507,-82.46C-19.54,-99.631 -13.479,-113.106 6.536,-115.383C10.067,-115.785 13.132,-112.928 13.132,-109.374C13.132,-106.63 11.292,-104.206 8.628,-103.546C5.72,-102.826 2.569,-101.282 0,-98.185" style="fill:rgb(45,44,44);fill-rule:nonzero;"/>
                </g>
                <g transform="matrix(1,0,0,1,217.48065,269.212917)">
                    <path d="M0,-98.185C7.946,-88.679 2.909,-73.797 4.447,-63.511C5.965,-53.225 12.162,-49.093 12.162,-49.093C12.162,-49.093 5.965,-44.961 4.447,-34.675C2.909,-24.389 7.946,-9.507 0,-0.001C-2.569,3.096 -5.72,4.64 -8.628,5.359C-11.292,6.02 -13.132,8.444 -13.132,11.189C-13.132,14.742 -10.067,17.6 -6.537,17.197C13.478,14.92 19.54,1.444 18.507,-15.726C17.638,-29.938 19.875,-37.344 23.911,-40.159C26.64,-42.063 28.498,-44.967 28.498,-48.294L28.498,-49.892C28.498,-53.219 26.64,-56.123 23.911,-58.027C19.875,-60.842 17.638,-68.248 18.507,-82.46C19.54,-99.631 13.478,-113.106 -6.537,-115.383C-10.067,-115.785 -13.132,-112.928 -13.132,-109.374C-13.132,-106.63 -11.292,-104.206 -8.628,-103.546C-5.72,-102.826 -2.569,-101.282 0,-98.185" style="fill:rgb(45,44,44);fill-rule:nonzero;"/>
                </g>
                <g transform="matrix(0,-1,-1,0,139.93255,186.759117)">
                    <path d="M-16.614,-16.614C-25.789,-16.614 -33.228,-9.176 -33.228,0C-33.228,9.175 -25.789,16.614 -16.614,16.614C-7.438,16.614 0,9.175 0,0C0,-9.176 -7.438,-16.614 -16.614,-16.614" style="fill:rgb(45,44,44);fill-rule:nonzero;"/>
                </g>
                <g transform="matrix(0,-1,-1,0,194.70755,186.759117)">
                    <path d="M-16.614,-16.614C-25.789,-16.614 -33.228,-9.176 -33.228,0C-33.228,9.175 -25.789,16.614 -16.614,16.614C-7.438,16.614 0,9.175 0,0C0,-9.176 -7.438,-16.614 -16.614,-16.614" style="fill:rgb(45,44,44);fill-rule:nonzero;"/>
                </g>
                <g transform="matrix(1,0,0,1,152.24285,192.832517)">
                    <path d="M0,12.027C0,12.027 2.795,0 15.078,0C27.359,0 30.155,12.027 30.155,12.027" style="fill:none;fill-rule:nonzero;stroke:rgb(45,44,44);stroke-width:3px;"/>
                </g>
                <g transform="matrix(1,0,0,1,181.27315,253.467717)">
                    <path d="M0,-9.054C0,-9.054 -2.587,0 -13.953,0C-25.318,0 -27.905,-9.054 -27.905,-9.054" style="fill:none;fill-rule:nonzero;stroke:rgb(45,44,44);stroke-width:4px;stroke-linecap:round;"/>
                </g>
            </g>
        </g>
    </g>
</svg>
