<?xml version="1.0" encoding="UTF-8" standalone="no"?>
<!DOCTYPE svg PUBLIC "-//W3C//DTD SVG 1.1//EN" "http://www.w3.org/Graphics/SVG/1.1/DTD/svg11.dtd">
<svg width="100%" height="100%" viewBox="0 0 512 256" version="1.1" xmlns="http://www.w3.org/2000/svg" xmlns:xlink="http://www.w3.org/1999/xlink" xml:space="preserve" xmlns:serif="http://www.serif.com/" style="fill-rule:evenodd;clip-rule:evenodd;stroke-linejoin:round;stroke-miterlimit:2;">
    <g transform="matrix(1,0,0,1,-2151.253593,0)">
        <g id="Artboard1" transform="matrix(0.941176,0,0,0.430976,326.312416,3.016835)">
            <rect x="1939" y="-7" width="544" height="594" style="fill:none;"/>
            <clipPath id="_clip1">
                <rect x="1939" y="-7" width="544" height="594"/>
            </clipPath>
            <g clip-path="url(#_clip1)">
                <g transform="matrix(1.0625,0,0,2.320312,-346.706942,-7)">
                    <path d="M2663.254,64L2663.254,192C2663.254,227.323 2634.576,256 2599.254,256L2215.254,256C2179.931,256 2151.254,227.323 2151.254,192L2151.254,64C2151.254,28.677 2179.931,0 2215.254,0L2599.254,0C2634.576,0 2663.254,28.677 2663.254,64Z"/>
                </g>
                <g transform="matrix(0.952786,0,0,2.080716,-10.260203,37.912806)">
                    <g transform="matrix(139.393851,0,0,139.393851,2100.064535,171.867466)">
                        <path d="M0.11,0.087L0.11,-0.815L0.367,-0.815L0.367,-0.716L0.234,-0.716L0.234,-0.011L0.367,-0.011L0.367,0.087L0.11,0.087Z" style="fill:white;fill-rule:nonzero;"/>
                    </g>
                    <g transform="matrix(139.393851,0,0,139.393851,2100.064535,171.867466)">
                    </g>
                    <g transform="matrix(139.393851,0,0,139.393851,2154.911529,171.867466)">
                    </g>
                    <g transform="matrix(139.393851,0,0,139.393851,2187.225839,171.867466)">
                        <path d="M0.458,-0.518C0.455,-0.547 0.443,-0.569 0.421,-0.585C0.399,-0.601 0.37,-0.609 0.334,-0.609C0.308,-0.609 0.287,-0.605 0.27,-0.598C0.252,-0.591 0.239,-0.581 0.23,-0.569C0.221,-0.557 0.217,-0.543 0.216,-0.527C0.216,-0.514 0.219,-0.503 0.225,-0.493C0.231,-0.483 0.239,-0.475 0.25,-0.468C0.261,-0.461 0.273,-0.455 0.287,-0.45C0.301,-0.445 0.316,-0.441 0.332,-0.437L0.397,-0.422C0.429,-0.414 0.458,-0.405 0.484,-0.393C0.511,-0.381 0.534,-0.367 0.553,-0.349C0.573,-0.332 0.588,-0.312 0.599,-0.288C0.609,-0.265 0.615,-0.238 0.615,-0.208C0.615,-0.163 0.604,-0.125 0.581,-0.092C0.559,-0.06 0.527,-0.034 0.485,-0.017C0.443,0.001 0.392,0.01 0.333,0.01C0.274,0.01 0.223,0.001 0.179,-0.017C0.136,-0.035 0.102,-0.061 0.078,-0.097C0.054,-0.132 0.041,-0.176 0.04,-0.228L0.189,-0.228C0.19,-0.204 0.197,-0.184 0.21,-0.168C0.222,-0.151 0.239,-0.139 0.26,-0.131C0.281,-0.123 0.304,-0.119 0.331,-0.119C0.357,-0.119 0.38,-0.123 0.399,-0.13C0.418,-0.138 0.433,-0.148 0.444,-0.162C0.454,-0.175 0.46,-0.191 0.46,-0.208C0.46,-0.225 0.455,-0.238 0.445,-0.249C0.436,-0.261 0.422,-0.27 0.403,-0.278C0.385,-0.286 0.363,-0.293 0.336,-0.299L0.257,-0.319C0.196,-0.334 0.147,-0.357 0.112,-0.389C0.076,-0.421 0.059,-0.463 0.059,-0.517C0.059,-0.561 0.071,-0.6 0.094,-0.632C0.118,-0.665 0.151,-0.691 0.193,-0.71C0.234,-0.728 0.282,-0.737 0.335,-0.737C0.389,-0.737 0.436,-0.728 0.476,-0.71C0.516,-0.691 0.548,-0.665 0.57,-0.632C0.593,-0.599 0.604,-0.561 0.605,-0.518L0.458,-0.518Z" style="fill:white;fill-rule:nonzero;"/>
                    </g>
                    <g transform="matrix(139.393851,0,0,139.393851,2278.504955,171.867466)">
                        <path d="M0.063,-0L0.063,-0.727L0.354,-0.727C0.408,-0.727 0.452,-0.719 0.488,-0.703C0.524,-0.687 0.551,-0.666 0.569,-0.637C0.587,-0.609 0.596,-0.577 0.596,-0.541C0.596,-0.512 0.59,-0.487 0.579,-0.466C0.567,-0.445 0.552,-0.427 0.532,-0.414C0.512,-0.4 0.49,-0.39 0.464,-0.385L0.464,-0.378C0.492,-0.376 0.518,-0.368 0.542,-0.354C0.567,-0.34 0.587,-0.319 0.602,-0.294C0.617,-0.268 0.624,-0.237 0.624,-0.201C0.624,-0.162 0.615,-0.128 0.596,-0.098C0.577,-0.068 0.549,-0.044 0.512,-0.026C0.474,-0.009 0.428,-0 0.374,-0L0.063,-0ZM0.217,-0.126L0.342,-0.126C0.385,-0.126 0.417,-0.134 0.436,-0.15C0.456,-0.167 0.466,-0.189 0.466,-0.216C0.466,-0.236 0.461,-0.254 0.451,-0.27C0.441,-0.285 0.428,-0.297 0.41,-0.306C0.392,-0.315 0.371,-0.319 0.346,-0.319L0.217,-0.319L0.217,-0.126ZM0.217,-0.423L0.331,-0.423C0.352,-0.423 0.371,-0.427 0.387,-0.434C0.404,-0.442 0.417,-0.452 0.426,-0.466C0.436,-0.48 0.441,-0.496 0.441,-0.515C0.441,-0.542 0.431,-0.563 0.413,-0.579C0.394,-0.595 0.368,-0.603 0.334,-0.603L0.217,-0.603L0.217,-0.423Z" style="fill:white;fill-rule:nonzero;"/>
                    </g>
                    <g transform="matrix(139.393851,0,0,139.393851,2370.61572,171.867466)">
                        <path d="M0.705,-0.473L0.549,-0.473C0.546,-0.493 0.541,-0.511 0.532,-0.526C0.523,-0.542 0.512,-0.556 0.498,-0.567C0.485,-0.578 0.469,-0.587 0.451,-0.592C0.433,-0.598 0.414,-0.601 0.393,-0.601C0.355,-0.601 0.322,-0.592 0.294,-0.573C0.266,-0.555 0.245,-0.528 0.229,-0.492C0.214,-0.457 0.206,-0.414 0.206,-0.364C0.206,-0.312 0.214,-0.268 0.23,-0.233C0.245,-0.198 0.267,-0.171 0.295,-0.153C0.323,-0.135 0.355,-0.126 0.392,-0.126C0.412,-0.126 0.431,-0.129 0.449,-0.134C0.467,-0.14 0.482,-0.148 0.496,-0.158C0.51,-0.169 0.521,-0.182 0.53,-0.197C0.54,-0.212 0.546,-0.229 0.549,-0.249L0.705,-0.248C0.701,-0.214 0.691,-0.182 0.675,-0.151C0.659,-0.121 0.637,-0.093 0.611,-0.069C0.584,-0.044 0.552,-0.025 0.515,-0.011C0.478,0.003 0.436,0.01 0.389,0.01C0.324,0.01 0.266,-0.005 0.215,-0.034C0.164,-0.063 0.124,-0.106 0.094,-0.162C0.065,-0.217 0.05,-0.285 0.05,-0.364C0.05,-0.443 0.065,-0.51 0.095,-0.566C0.125,-0.622 0.165,-0.664 0.216,-0.693C0.268,-0.723 0.325,-0.737 0.389,-0.737C0.431,-0.737 0.471,-0.731 0.507,-0.72C0.543,-0.708 0.575,-0.691 0.603,-0.668C0.631,-0.645 0.653,-0.618 0.671,-0.585C0.689,-0.552 0.7,-0.515 0.705,-0.473Z" style="fill:white;fill-rule:nonzero;"/>
                    </g>
                    <g transform="matrix(139.393851,0,0,139.393851,2475.438172,171.867466)">
                    </g>
                    <g transform="matrix(139.393851,0,0,139.393851,2507.752481,171.867466)">
                        <path d="M0.283,-0.815L0.283,0.087L0.027,0.087L0.027,-0.011L0.16,-0.011L0.16,-0.716L0.027,-0.716L0.027,-0.815L0.283,-0.815Z" style="fill:white;fill-rule:nonzero;"/>
                    </g>
                    <g transform="matrix(139.393851,0,0,139.393851,2507.752481,171.867466)">
                    </g>
                    <g transform="matrix(139.393851,0,0,139.393851,2562.599476,171.867466)">
                    </g>
                </g>
            </g>
        </g>
    </g>
</svg>
